<?xml version="1.0" encoding="utf-8"?>
<!-- Generator: Adobe Illustrator 23.1.1, SVG Export Plug-In . SVG Version: 6.00 Build 0)  -->
<svg version="1.1" id="图层_1" xmlns="http://www.w3.org/2000/svg" xmlns:xlink="http://www.w3.org/1999/xlink" x="0px" y="0px"
	 viewBox="0 0 1874.7 512" style="enable-background:new 0 0 1874.7 512;" xml:space="preserve">
<style type="text/css">
	.st0{fill:#7B67EE;}
	.st1{fill:#FFFFFF;}
	.st2{fill:#000650;}
</style>
<title>资源 9</title>
<g>
	<g id="图层_1-2">
		<path class="st0" d="M0,384c0,70.7,57.3,128,128,128h256c70.7,0,128-57.3,128-128l0,0V128l0,0C512,57.3,454.7,0,384,0H128
			C57.3,0,0,57.3,0,128c0,0,0,0,0,0V384z"/>
		<path class="st1" d="M341.2,298.6L341.2,298.6c23.5,0,42.6,19.1,42.6,42.6v0c0,23.5-19.1,42.6-42.6,42.6l0,0
			c-23.5,0-42.6-19.1-42.6-42.6v0C298.6,317.7,317.7,298.6,341.2,298.6z"/>
		<polygon class="st1" points="298.6,213.4 213.4,298.6 128.2,383.8 128.2,298.6 128.2,213.4 128.2,128.2 213.4,128.2 213.4,213.4 
			298.6,128.2 383.8,128.2 		"/>
		<polygon class="st2" points="639.7,426.6 739.7,426.6 744.5,392.2 644.5,392.2 		"/>
		<path class="st2" d="M874,85h-37.4l-59.3,133.6h25.9l-24.3,173.7l-4.8,34.4h211.8l4.8-34.4h-76l7.4-52.7h70.6l4.8-34.4H927
			l7.4-52.3h70.6l4.8-34.3h-70.6l6.3-44.7h72.5l4.8-34.3H849.5L874,85z M880.4,392.2h-67.2l7.4-52.7h67.2L880.4,392.2z M892.6,305.1
			h-67.2l7.4-52.3h67.2L892.6,305.1z M911.1,173.8l-6.3,44.7h-67.2l6.3-44.6L911.1,173.8z"/>
		<polygon class="st2" points="959.8,85 957.9,85 923.6,85 921.7,85 916.4,123 954.4,123 		"/>
		<polygon class="st2" points="783.8,172.4 747.5,172.4 726.4,211 711.7,211 764.8,85 728.5,85 660.9,245.3 707.6,245.3 
			655.9,339.6 751.9,339.6 756.7,305.2 711,305.2 		"/>
		<polygon class="st2" points="1101.5,192.2 1069.9,417.4 1100,417.4 1131.7,192.2 		"/>
		<polygon class="st2" points="1196.2,192.2 1164.5,417.4 1194.7,417.4 1226.3,192.2 		"/>
		<polygon class="st2" points="1235.4,173.9 1240.2,139.6 1188.7,139.6 1196.4,85 1162,85 1154.3,139.6 1099.7,139.6 1094.9,173.9 
			1149.5,173.9 1114,426.6 1148.3,426.6 1183.8,173.9 		"/>
		<polygon class="st2" points="1440.9,104.8 1296.6,104.8 1299.4,85 1264.4,85 1256.8,139.2 1257.1,139.2 1257,139.6 1401.3,139.6 
			1396.8,171.3 1338,200 1287.3,171.3 1289.2,157.9 1254.4,157.9 1249.9,189.8 1300.4,218.3 1228.8,253.2 1223.7,289.9 
			1332.9,236.6 1427.1,289.9 1432.3,253.2 1370.4,218.3 1429,189.8 		"/>
		<path class="st2" d="M1216.7,426.6h179l19.8-140.9h-179L1216.7,426.6z M1266.2,320.1h109.9l-10.1,72.1h-110L1266.2,320.1z"/>
		<polygon class="st2" points="1869.8,265.3 1874.7,230.6 1519,230.6 1514.2,265.3 1581.9,265.3 1497.9,426.6 1841.8,426.6 
			1815.2,286.4 1777.5,286.4 1797.3,391.6 1553,391.6 1619.9,265.3 		"/>
		<polygon class="st2" points="1861.4,104.8 1567.6,104.8 1562.8,139.4 1856.6,139.4 		"/>
	</g>
</g>
</svg>
